<mxfile host="app.diagrams.net" modified="2021-08-26T09:13:31.229Z" agent="5.0 (Macintosh; Intel Mac OS X 10_15_7) AppleWebKit/537.36 (KHTML, like Gecko) Chrome/86.0.4240.193 Safari/537.36" etag="o_v2UFlWhv-oMn3mGsip" version="14.9.9" type="github">
  <diagram id="WII6mWOaHSMsTVorQr9N" name="Page-1">
    <mxGraphModel dx="946" dy="536" grid="1" gridSize="10" guides="1" tooltips="1" connect="1" arrows="1" fold="1" page="1" pageScale="1" pageWidth="827" pageHeight="1169" math="0" shadow="0">
      <root>
        <mxCell id="0" />
        <mxCell id="1" parent="0" />
        <mxCell id="KNY4HZSlmsUiAL8JBXFu-26" value="" style="shape=table;html=1;whiteSpace=wrap;startSize=0;container=1;collapsible=0;childLayout=tableLayout;fillColor=#ffe6cc;strokeColor=#d79b00;" vertex="1" parent="1">
          <mxGeometry x="320" y="340" width="300" height="40" as="geometry" />
        </mxCell>
        <mxCell id="KNY4HZSlmsUiAL8JBXFu-27" value="" style="shape=partialRectangle;html=1;whiteSpace=wrap;collapsible=0;dropTarget=0;pointerEvents=0;fillColor=none;top=0;left=0;bottom=0;right=0;points=[[0,0.5],[1,0.5]];portConstraint=eastwest;" vertex="1" parent="KNY4HZSlmsUiAL8JBXFu-26">
          <mxGeometry width="300" height="40" as="geometry" />
        </mxCell>
        <mxCell id="KNY4HZSlmsUiAL8JBXFu-28" value="12" style="shape=partialRectangle;html=1;whiteSpace=wrap;connectable=0;fillColor=none;top=0;left=0;bottom=0;right=0;overflow=hidden;pointerEvents=1;" vertex="1" parent="KNY4HZSlmsUiAL8JBXFu-27">
          <mxGeometry width="60" height="40" as="geometry" />
        </mxCell>
        <mxCell id="KNY4HZSlmsUiAL8JBXFu-29" value="9" style="shape=partialRectangle;html=1;whiteSpace=wrap;connectable=0;fillColor=none;top=0;left=0;bottom=0;right=0;overflow=hidden;pointerEvents=1;" vertex="1" parent="KNY4HZSlmsUiAL8JBXFu-27">
          <mxGeometry x="60" width="60" height="40" as="geometry" />
        </mxCell>
        <mxCell id="KNY4HZSlmsUiAL8JBXFu-30" value="7" style="shape=partialRectangle;html=1;whiteSpace=wrap;connectable=0;fillColor=none;top=0;left=0;bottom=0;right=0;overflow=hidden;pointerEvents=1;" vertex="1" parent="KNY4HZSlmsUiAL8JBXFu-27">
          <mxGeometry x="120" width="60" height="40" as="geometry" />
        </mxCell>
        <mxCell id="KNY4HZSlmsUiAL8JBXFu-31" value="5" style="shape=partialRectangle;html=1;whiteSpace=wrap;connectable=0;fillColor=none;top=0;left=0;bottom=0;right=0;overflow=hidden;pointerEvents=1;" vertex="1" parent="KNY4HZSlmsUiAL8JBXFu-27">
          <mxGeometry x="180" width="60" height="40" as="geometry" />
        </mxCell>
        <mxCell id="KNY4HZSlmsUiAL8JBXFu-32" value="4" style="shape=partialRectangle;html=1;whiteSpace=wrap;connectable=0;fillColor=none;top=0;left=0;bottom=0;right=0;overflow=hidden;pointerEvents=1;" vertex="1" parent="KNY4HZSlmsUiAL8JBXFu-27">
          <mxGeometry x="240" width="60" height="40" as="geometry" />
        </mxCell>
        <mxCell id="KNY4HZSlmsUiAL8JBXFu-33" value="单调递增队列" style="text;html=1;align=center;verticalAlign=middle;resizable=0;points=[];autosize=1;strokeColor=none;" vertex="1" parent="1">
          <mxGeometry x="210" y="230" width="90" height="20" as="geometry" />
        </mxCell>
        <mxCell id="KNY4HZSlmsUiAL8JBXFu-34" value="单调递减队列" style="text;html=1;align=center;verticalAlign=middle;resizable=0;points=[];autosize=1;strokeColor=none;" vertex="1" parent="1">
          <mxGeometry x="210" y="350" width="90" height="20" as="geometry" />
        </mxCell>
        <mxCell id="KNY4HZSlmsUiAL8JBXFu-35" value="" style="shape=table;html=1;whiteSpace=wrap;startSize=0;container=1;collapsible=0;childLayout=tableLayout;fillColor=#dae8fc;strokeColor=#6c8ebf;" vertex="1" parent="1">
          <mxGeometry x="320" y="220" width="300" height="40" as="geometry" />
        </mxCell>
        <mxCell id="KNY4HZSlmsUiAL8JBXFu-36" value="" style="shape=partialRectangle;html=1;whiteSpace=wrap;collapsible=0;dropTarget=0;pointerEvents=0;fillColor=none;top=0;left=0;bottom=0;right=0;points=[[0,0.5],[1,0.5]];portConstraint=eastwest;" vertex="1" parent="KNY4HZSlmsUiAL8JBXFu-35">
          <mxGeometry width="300" height="40" as="geometry" />
        </mxCell>
        <mxCell id="KNY4HZSlmsUiAL8JBXFu-37" value="1" style="shape=partialRectangle;html=1;whiteSpace=wrap;connectable=0;fillColor=none;top=0;left=0;bottom=0;right=0;overflow=hidden;pointerEvents=1;" vertex="1" parent="KNY4HZSlmsUiAL8JBXFu-36">
          <mxGeometry width="60" height="40" as="geometry" />
        </mxCell>
        <mxCell id="KNY4HZSlmsUiAL8JBXFu-38" value="3" style="shape=partialRectangle;html=1;whiteSpace=wrap;connectable=0;fillColor=none;top=0;left=0;bottom=0;right=0;overflow=hidden;pointerEvents=1;" vertex="1" parent="KNY4HZSlmsUiAL8JBXFu-36">
          <mxGeometry x="60" width="60" height="40" as="geometry" />
        </mxCell>
        <mxCell id="KNY4HZSlmsUiAL8JBXFu-39" value="6" style="shape=partialRectangle;html=1;whiteSpace=wrap;connectable=0;fillColor=none;top=0;left=0;bottom=0;right=0;overflow=hidden;pointerEvents=1;" vertex="1" parent="KNY4HZSlmsUiAL8JBXFu-36">
          <mxGeometry x="120" width="60" height="40" as="geometry" />
        </mxCell>
        <mxCell id="KNY4HZSlmsUiAL8JBXFu-40" value="7" style="shape=partialRectangle;html=1;whiteSpace=wrap;connectable=0;fillColor=none;top=0;left=0;bottom=0;right=0;overflow=hidden;pointerEvents=1;" vertex="1" parent="KNY4HZSlmsUiAL8JBXFu-36">
          <mxGeometry x="180" width="60" height="40" as="geometry" />
        </mxCell>
        <mxCell id="KNY4HZSlmsUiAL8JBXFu-41" value="10" style="shape=partialRectangle;html=1;whiteSpace=wrap;connectable=0;fillColor=none;top=0;left=0;bottom=0;right=0;overflow=hidden;pointerEvents=1;" vertex="1" parent="KNY4HZSlmsUiAL8JBXFu-36">
          <mxGeometry x="240" width="60" height="40" as="geometry" />
        </mxCell>
      </root>
    </mxGraphModel>
  </diagram>
</mxfile>
